<?xml version="1.0" encoding="UTF-8" standalone="no"?>
<!DOCTYPE svg PUBLIC "-//W3C//DTD SVG 1.1//EN" "http://www.w3.org/Graphics/SVG/1.1/DTD/svg11.dtd">
<svg width="100%" height="100%" viewBox="0 0 422 414" version="1.1" xmlns="http://www.w3.org/2000/svg" xmlns:xlink="http://www.w3.org/1999/xlink" xml:space="preserve" xmlns:serif="http://www.serif.com/" style="fill-rule:evenodd;clip-rule:evenodd;stroke-linejoin:round;stroke-miterlimit:2;">
    <g transform="matrix(1,0,0,1,-45.4167,-49.4375)">
        <g transform="matrix(1,0,0,1,-8.52651e-14,7.97917)">
            <g transform="matrix(0.600361,0,0,0.600361,14.655,0.850314)">
                <path d="M402,293.709C468.942,293.709 523.291,348.058 523.291,415C523.291,481.942 468.942,536.291 402,536.291C335.058,536.291 280.709,481.942 280.709,415C280.709,348.058 335.058,293.709 402,293.709ZM402,342.291C361.871,342.291 329.291,374.871 329.291,415C329.291,455.129 361.871,487.709 402,487.709C442.129,487.709 474.709,455.129 474.709,415C474.709,374.871 442.129,342.291 402,342.291Z"/>
            </g>
            <g transform="matrix(1,0,0,1,0,-15)">
                <path d="M197.765,431.583C189.716,431.583 183.182,425.049 183.182,417C183.182,408.951 189.716,402.417 197.765,402.417L314.235,402.417C322.284,402.417 328.818,408.951 328.818,417C328.818,425.049 322.284,431.583 314.235,431.583L197.765,431.583Z"/>
            </g>
            <g transform="matrix(0.708079,0,0,0.708079,74.7317,144.731)">
                <path d="M197.765,437.596C186.398,437.596 177.169,428.367 177.169,417C177.169,405.633 186.398,396.404 197.765,396.404L314.235,396.404C325.602,396.404 334.831,405.633 334.831,417C334.831,428.367 325.602,437.596 314.235,437.596L197.765,437.596Z"/>
            </g>
            <g transform="matrix(1,0,0,1,3,8)">
                <path d="M328.153,53.417C336.121,53.422 342.61,59.82 342.728,67.787C342.845,75.755 336.547,82.342 328.583,82.582C328.365,82.573 328.17,82.583 328,82.583L187,82.583C123.257,82.583 71.583,134.257 71.583,198C71.583,207.095 64.944,212.427 57.082,212.583L57,212.583C48.951,212.583 42.417,206.049 42.417,198C42.417,118.149 107.149,53.417 187,53.417L328,53.417C328.051,53.417 328.102,53.417 328.153,53.417ZM422.847,140.14C424.629,134.201 429.899,129.983 436.084,129.546C442.27,129.109 448.08,132.544 450.679,138.173C458.962,156.409 463.583,176.665 463.583,198C463.583,202.112 462.293,205.225 460.4,207.514C457.549,210.963 453.189,212.583 449,212.583C440.951,212.583 434.417,206.049 434.417,198C434.417,180.477 430.511,163.865 423.524,148.989C422.215,146.227 421.976,143.078 422.855,140.15C422.846,140.145 422.847,140.142 422.847,140.14Z"/>
            </g>
            <g transform="matrix(3.78671e-17,0.618416,-0.67779,4.15027e-17,547.45,2.01507)">
                <path d="M520.149,215.209C542.974,215.209 564.874,223.845 581.013,239.257C597.045,254.566 606.073,275.323 606.073,296.973L606.073,563.027C606.073,584.677 597.045,605.434 581.013,620.743C564.874,636.155 542.974,644.791 520.149,644.791L281.851,644.791C259.026,644.791 237.126,636.155 220.987,620.743C204.955,605.434 195.927,584.677 195.927,563.027L195.927,296.973C195.927,275.323 204.955,254.566 220.987,239.257C237.126,223.845 259.026,215.209 281.851,215.209L520.149,215.209ZM520.149,256.791L281.851,256.791C270.807,256.791 260.226,261.003 252.416,268.46C244.499,276.02 240.073,286.281 240.073,296.973L240.073,563.027C240.073,573.719 244.499,583.98 252.416,591.54C260.226,598.997 270.807,603.209 281.851,603.209L520.149,603.209C531.193,603.209 541.774,598.997 549.584,591.54C557.501,583.98 561.927,573.719 561.927,563.027L561.927,296.973C561.927,286.281 557.501,276.02 549.584,268.46C541.774,261.003 531.193,256.791 520.149,256.791Z"/>
            </g>
            <g transform="matrix(0.649058,0,0,0.649058,174.194,-16.5924)">
                <path d="M338.59,186.758L295,186.758C285.115,186.758 277.09,178.733 277.09,168.848C277.09,158.964 285.115,150.938 295,150.938L338.59,150.938L338.59,107.348C338.59,97.464 346.615,89.438 356.5,89.438C366.385,89.438 374.41,97.464 374.41,107.348L374.41,150.938L418,150.938C427.885,150.938 435.91,158.964 435.91,168.848C435.91,178.733 427.885,186.758 418,186.758L374.41,186.758L374.41,230.348C374.41,240.233 366.385,248.258 356.5,248.258C346.615,248.258 338.59,240.233 338.59,230.348L338.59,186.758Z"/>
            </g>
        </g>
    </g>
</svg>
